<svg width="20" height="21" viewBox="0 0 20 21" fill="none" xmlns="http://www.w3.org/2000/svg">
<g id="shopping cart">
<path id="Icon" d="M2.5 3.83325H3.00526C3.85578 3.83325 4.56986 4.47367 4.6621 5.31917L5.3379 11.514C5.43014 12.3595 6.14422 12.9999 6.99474 12.9999H14.205C14.9669 12.9999 15.6317 12.4833 15.82 11.7451L16.9699 7.23584C17.2387 6.18204 16.4425 5.15733 15.355 5.15733H5.5M5.52063 16.0207H6.14563M5.52063 16.6457H6.14563M14.6873 16.0207H15.3123M14.6873 16.6457H15.3123M6.66667 16.3333C6.66667 16.7935 6.29357 17.1666 5.83333 17.1666C5.3731 17.1666 5 16.7935 5 16.3333C5 15.873 5.3731 15.4999 5.83333 15.4999C6.29357 15.4999 6.66667 15.873 6.66667 16.3333ZM15.8333 16.3333C15.8333 16.7935 15.4602 17.1666 15 17.1666C14.5398 17.1666 14.1667 16.7935 14.1667 16.3333C14.1667 15.873 14.5398 15.4999 15 15.4999C15.4602 15.4999 15.8333 15.873 15.8333 16.3333Z" stroke="white" stroke-width="1.5" stroke-linecap="round"/>
</g>
</svg>
